<?xml version="1.0" encoding="utf-8"?>
<!-- Generator: Adobe Illustrator 24.3.0, SVG Export Plug-In . SVG Version: 6.00 Build 0)  -->
<svg version="1.1" id="Layer_1" xmlns="http://www.w3.org/2000/svg" xmlns:xlink="http://www.w3.org/1999/xlink" x="0px" y="0px"
	 width="275px" height="100px" viewBox="0 0 275 100" style="enable-background:new 0 0 275 100;" xml:space="preserve">
<style type="text/css">
	.st0{display:none;}
	.st1{display:inline;fill:#2E4560;}
	.st2{display:inline;fill:#3B474F;}
	.st3{display:inline;}
	.st4{opacity:0.65;fill-rule:evenodd;clip-rule:evenodd;fill:#DDE4EE;enable-background:new    ;}
	.st5{fill-rule:evenodd;clip-rule:evenodd;fill:#E62169;}
	.st6{display:inline;fill:#3B4750;}
	.st7{fill:#DDE4EE;fill-opacity:0.15;stroke:#858E93;stroke-width:0.8964;stroke-miterlimit:10;}
	.st8{fill:#DDE4EE;fill-opacity:0.15;stroke:#858E93;stroke-width:0.986;stroke-miterlimit:10;}
	.st9{fill:#E62169;}
	.st10{fill:#3B4750;}
	.st11{fill:#3B474F;}
	.st12{opacity:0.5;fill:#DDDDDD;enable-background:new    ;}
	.st13{opacity:0.5;fill:#ED3071;enable-background:new    ;}
	.st14{display:inline;opacity:0.65;}
	.st15{fill:#DDE4EE;}
	.st16{fill:#ED3071;}
	.st17{display:none;opacity:0.52;fill:#FFFFFF;enable-background:new    ;}
	.st18{display:none;fill:#ED3071;stroke:#ED3071;stroke-width:0.8981;stroke-miterlimit:10;}
	.st19{display:none;fill:#ED3071;}
	.st20{fill:none;}
	.st21{opacity:0.53;fill:#DDE4EE;enable-background:new    ;}
	.st22{opacity:0.52;fill:#DDE4EE;enable-background:new    ;}
	.st23{opacity:0.7;}
	.st24{fill:none;stroke:#FFFFFF;stroke-width:2.7052;}
	.st25{opacity:0.7;fill:none;stroke:#FFFFFF;stroke-width:1.4873;enable-background:new    ;}
	.st26{opacity:0.7;fill:none;stroke:#FFFFFF;stroke-width:2.8342;enable-background:new    ;}
	.st27{opacity:0.7;fill:none;stroke:#FFFFFF;stroke-width:2.0862;enable-background:new    ;}
	.st28{opacity:0.7;fill:none;stroke:#FFFFFF;stroke-width:2.0183;enable-background:new    ;}
	.st29{opacity:0.7;fill:none;stroke:#FFFFFF;stroke-width:2.4609;enable-background:new    ;}
	.st30{opacity:0.7;fill:none;stroke:#FFFFFF;stroke-width:1.2724;enable-background:new    ;}
	.st31{fill:none;stroke:#FFFFFF;stroke-width:0.6821;stroke-miterlimit:10;}
	.st32{opacity:0.7;fill:none;stroke:#FFFFFF;stroke-width:4.0719;enable-background:new    ;}
	.st33{opacity:0.7;fill:none;stroke:#FFFFFF;stroke-width:2.492;enable-background:new    ;}
	.st34{opacity:0.7;fill:none;stroke:#FFFFFF;stroke-width:4.0741;enable-background:new    ;}
	.st35{opacity:0.7;fill:none;stroke:#FFFFFF;stroke-width:1.5614;enable-background:new    ;}
	.st36{opacity:0.7;fill:none;stroke:#FFFFFF;stroke-width:1.1491;enable-background:new    ;}
	.st37{opacity:0.7;fill:none;stroke:#FFFFFF;stroke-width:0.4298;stroke-opacity:0.5;enable-background:new    ;}
	.st38{opacity:0.7;fill:none;stroke:#FFFFFF;stroke-width:1.189;enable-background:new    ;}
	.st39{opacity:0.7;fill:none;stroke:#FFFFFF;stroke-width:1.3748;enable-background:new    ;}
	.st40{fill:none;stroke:#DDE4EE;stroke-width:0.1612;}
	.st41{fill:none;stroke:#DDE4EE;stroke-width:0.4143;}
	.st42{fill:none;stroke:#DDE4EE;stroke-width:2.7052;}
	.st43{opacity:0.7;fill:none;stroke:#DDE4EE;stroke-width:1.4873;enable-background:new    ;}
	.st44{opacity:0.7;fill:none;stroke:#DDE4EE;stroke-width:2.8342;enable-background:new    ;}
	.st45{opacity:0.7;fill:none;stroke:#DDE4EE;stroke-width:2.0862;enable-background:new    ;}
	.st46{opacity:0.7;fill:none;stroke:#DDE4EE;stroke-width:2.0183;enable-background:new    ;}
	.st47{opacity:0.7;fill:none;stroke:#DDE4EE;stroke-width:2.4609;enable-background:new    ;}
	.st48{opacity:0.7;fill:none;stroke:#DDE4EE;stroke-width:1.2724;enable-background:new    ;}
	.st49{fill:none;stroke:#DDE4EE;stroke-width:0.6821;stroke-miterlimit:10;}
	.st50{opacity:0.7;fill:none;stroke:#DDE4EE;stroke-width:4.0719;enable-background:new    ;}
	.st51{opacity:0.7;fill:none;stroke:#DDE4EE;stroke-width:2.492;enable-background:new    ;}
	.st52{opacity:0.7;fill:none;stroke:#DDE4EE;stroke-width:4.0741;enable-background:new    ;}
	.st53{opacity:0.7;fill:none;stroke:#DDE4EE;stroke-width:1.5614;enable-background:new    ;}
	.st54{opacity:0.7;fill:none;stroke:#DDE4EE;stroke-width:1.1491;enable-background:new    ;}
	.st55{opacity:0.7;fill:none;stroke:#DDE4EE;stroke-width:0.4298;stroke-opacity:0.5;enable-background:new    ;}
	.st56{opacity:0.7;fill:none;stroke:#DDE4EE;stroke-width:1.189;enable-background:new    ;}
	.st57{opacity:0.7;fill:none;stroke:#DDE4EE;stroke-width:1.3748;enable-background:new    ;}
	.st58{fill:#26A9E1;}
	.st59{fill-rule:evenodd;clip-rule:evenodd;fill:#ED3071;}
	.st60{fill:#DDE4EE;stroke:#FFFFFF;stroke-width:0.6667;stroke-miterlimit:10;}
	.st61{fill:#DDE4EE;stroke:#FFFFFF;stroke-width:0.7334;stroke-miterlimit:10;}
	.st62{fill:#FFFFFF;}
	.st63{opacity:0.3;fill:#DDE4EE;enable-background:new    ;}
	.st64{fill:none;stroke:#DDE4EE;stroke-width:0.7134;}
	.st65{fill:none;stroke:#26A9E1;stroke-width:3.5671;}
	.st66{fill:none;stroke:#E62169;stroke-width:1.4269;}
</style>
<g id="Layer_7" class="st0">
	<rect x="-72.7" y="-36.4" class="st1" width="420.8" height="178.8"/>
</g>
<g id="Tiles" class="st0">
	<path class="st2" d="M-52.2-5.4h45.6c2.5,0,4.6,2,4.6,4.6v45.6c0,2.5-2,4.6-4.6,4.6h-45.6c-2.5,0-4.6-2-4.6-4.6V-0.8
		C-56.7-3.3-54.7-5.4-52.2-5.4z"/>
	<g class="st3">
		<path class="st4" d="M-37.1,2.4L-37.1,2.4l-1.8,1.8L-40.7,6c-0.4,0.5-0.4,1.2,0,1.6l1.8,1.8l1.8,1.8c0.5,0.4,0.8,0.2,0.8-0.3V8.8
			c4.6,0,8.4,3.7,8.4,8.3c0,2.3-0.9,4.4-2.4,5.9l2.8,2.8c2.3-2.3,3.6-5.3,3.6-8.7c0-6.8-5.5-12.3-12.3-12.3v-2
			C-36.3,2.1-36.7,2-37.1,2.4L-37.1,2.4z"/>
		<path class="st5" d="M-36.2,22.8c-0.4-0.4-0.8-0.3-0.8,0.3v2.1c-4.6,0-8.3-3.7-8.3-8.3c0-2.3,0.9-4.4,2.4-5.9l-2.8-2.8
			c-2.2,2.2-3.5,5.3-3.5,8.7c0,6.8,5.5,12.3,12.2,12.3v2c0,0.7,0.4,0.8,0.8,0.3l1.8-1.8l1.8-1.8c0.5-0.4,0.5-1.2,0-1.6l-1.8-1.9
			L-36.2,22.8z"/>
	</g>
	<path class="st6" d="M-29,20.2c-0.3,0.1-0.6,0.3-0.8,0.5c-0.3,0.3-0.5,0.8-0.6,1.2c-0.1,0.5,0,0.9,0,1.4c0,0.8,0,1.7-0.1,2.5
		c0,0.2,0,0.4,0,0.6c0,0.3,0.1,0.5,0.1,0.7c0.1,0.6-0.1,1.1-0.1,1.7c0,0.2,0,0.3,0.2,0.5s0.4,0.3,0.7,0.3c1.5,0.2,3,0.1,4.5,0
		c0.5,0,1.1-0.1,1.6-0.3c0.8-0.3,1.5-1,1.7-1.9c0.3-1.1-0.1-2.3-0.2-3.5c-0.1-1-0.1-2-0.3-2.9c-0.1-0.6-0.3-1.2-0.7-1.6
		c-0.2-0.2-0.5-0.3-0.8-0.2c-0.1,0-0.2,0.1-0.3,0.1c-0.4,0.2-0.9,0.1-1.4,0C-26.7,19.2-27.8,19.7-29,20.2z"/>
	<g class="st3">
		<path class="st7" d="M-14.6,27.4L-14.6,27.4c-0.1,0.1-0.2,0.1-0.3,0.2l0,0c-0.1,0-0.2,0.1-0.3,0.1h-0.1c-0.1,0.1-0.2,0.1-0.3,0.1
			h-0.1c-0.1,0-0.2,0.1-0.3,0.1h-0.1c-0.1,0-0.2,0.1-0.4,0.1h-0.1c-0.1,0-0.2,0.1-0.3,0.1H-17c-0.1,0-0.3,0.1-0.4,0.1h-0.1
			c-0.1,0-0.3,0.1-0.4,0.1H-18c-0.2,0-0.3,0.1-0.5,0.1h-0.1c-0.1,0-0.3,0-0.4,0.1h-0.1c-0.2,0-0.3,0-0.5,0.1h-0.1
			c-0.2,0-0.3,0-0.5,0h-0.1c-0.2,0-0.3,0-0.5,0h-0.1c-0.2,0-0.3,0-0.5,0l0,0c-0.2,0-0.4,0-0.5,0H-22c-0.2,0-0.4,0-0.5,0
			c-0.2,0-0.4,0-0.5,0h-0.1c-0.2,0-0.4,0-0.5,0l0,0c-0.2,0-0.3,0-0.5,0h-0.1c-0.2,0-0.3,0-0.5,0h-0.1c-0.2,0-0.3,0-0.5,0h-0.1
			c-0.2,0-0.3,0-0.5-0.1H-26c-0.1,0-0.3,0-0.4-0.1h-0.1c-0.2,0-0.3-0.1-0.5-0.1h-0.1c-0.1,0-0.3-0.1-0.4-0.1h-0.1
			c-0.1,0-0.3-0.1-0.4-0.1h-0.1c-0.1,0-0.2-0.1-0.3-0.1h-0.1c-0.1,0-0.3-0.1-0.4-0.1H-29c-0.1,0-0.2-0.1-0.3-0.1h-0.1
			c-0.1,0-0.2-0.1-0.3-0.1h-0.1c-0.1,0-0.2-0.1-0.3-0.1l0,0c-0.1-0.1-0.2-0.1-0.2-0.2l0,0v3.7c0,0.9,3,2.1,7.9,2.1s7.9-1.2,7.9-2.1
			L-14.6,27.4z"/>
		<path class="st7" d="M-14.6,32.2L-14.6,32.2c-0.1,0.1-0.2,0.1-0.3,0.2l0,0c-0.1,0-0.2,0.1-0.3,0.1h-0.1c-0.1,0.1-0.2,0.1-0.3,0.1
			h-0.1c-0.1,0-0.2,0.1-0.3,0.1h-0.1c-0.1,0-0.2,0.1-0.4,0.1h-0.1c-0.1,0-0.2,0.1-0.3,0.1H-17c-0.1,0-0.3,0.1-0.4,0.1h-0.1
			c-0.1,0-0.3,0.1-0.4,0.1H-18c-0.2,0-0.3,0.1-0.5,0.1h-0.1c-0.1,0-0.3,0-0.4,0.1h-0.1c-0.2,0-0.3,0-0.5,0.1h-0.1
			c-0.2,0-0.3,0-0.5,0h-0.1c-0.2,0-0.3,0-0.5,0h-0.1c-0.2,0-0.3,0-0.5,0l0,0c-0.2,0-0.4,0-0.5,0H-22c-0.2,0-0.4,0-0.5,0
			c-0.2,0-0.4,0-0.5,0h-0.1c-0.2,0-0.4,0-0.5,0l0,0c-0.2,0-0.3,0-0.5,0h-0.1c-0.2,0-0.3,0-0.5,0h-0.1c-0.2,0-0.3,0-0.5,0h-0.1
			c-0.2,0-0.3,0-0.5-0.1H-26c-0.1,0-0.3,0-0.4-0.1h-0.1c-0.2,0-0.3-0.1-0.5-0.1h-0.1c-0.1,0-0.3-0.1-0.4-0.1h-0.1
			c-0.1,0-0.3-0.1-0.4-0.1h-0.1c-0.1,0-0.2-0.1-0.3-0.1h-0.1c-0.1,0-0.3-0.1-0.4-0.1H-29c-0.1,0-0.2-0.1-0.3-0.1h-0.1
			c-0.1,0-0.2-0.1-0.3-0.1h-0.1c-0.1,0-0.2-0.1-0.3-0.1l0,0c-0.1-0.1-0.2-0.1-0.2-0.2l0,0v3.7c0,0.9,3,2.1,7.9,2.1s7.9-1.2,7.9-2.1
			L-14.6,32.2z"/>
		<path class="st7" d="M-14.6,22.6L-14.6,22.6c-0.1,0.1-0.2,0.1-0.3,0.2l0,0c-0.1,0-0.2,0.1-0.3,0.1h-0.1c-0.1,0.1-0.2,0.1-0.3,0.1
			h-0.1c-0.1,0-0.2,0.1-0.3,0.1h-0.1c-0.1,0-0.2,0.1-0.4,0.1h-0.1c-0.1,0-0.2,0.1-0.3,0.1H-17c-0.1,0-0.3,0.1-0.4,0.1h-0.1
			c-0.1,0-0.3,0.1-0.4,0.1H-18c-0.2,0-0.3,0.1-0.5,0.1h-0.1c-0.1,0-0.3,0-0.4,0.1h-0.1c-0.2,0-0.3,0-0.5,0.1h-0.1
			c-0.2,0-0.3,0-0.5,0h-0.1c-0.2,0-0.3,0-0.5,0h-0.1c-0.2,0-0.3,0-0.5,0l0,0c-0.2,0-0.4,0-0.5,0H-22c-0.2,0-0.4,0-0.5,0
			c-0.2,0-0.4,0-0.5,0h-0.1c-0.2,0-0.4,0-0.5,0l0,0c-0.2,0-0.3,0-0.5,0h-0.1c-0.2,0-0.3,0-0.5,0h-0.1c-0.2,0-0.3,0-0.5,0h-0.1
			c-0.2,0-0.3,0-0.5-0.1H-26c-0.1,0-0.3,0-0.4-0.1h-0.1c-0.2,0-0.3-0.1-0.5-0.1h-0.1c-0.1,0-0.3-0.1-0.4-0.1h-0.1
			c-0.1,0-0.3-0.1-0.4-0.1h-0.1c-0.1,0-0.2-0.1-0.3-0.1h-0.1c-0.1,0-0.3-0.1-0.4-0.1H-29c-0.1,0-0.2-0.1-0.3-0.1h-0.1
			c-0.1,0-0.2-0.1-0.3-0.1h-0.1c-0.1,0-0.2-0.1-0.3-0.1l0,0c-0.1-0.1-0.2-0.1-0.2-0.2l0,0v3.7c0,0.9,3,2.1,7.9,2.1s7.9-1.2,7.9-2.1
			L-14.6,22.6z"/>
		<path class="st8" d="M-14.6,21.5c0-1.1-3.5-2.1-7.9-2.1s-7.9,0.9-7.9,2.1c0,1.1,3.5,2.1,7.9,2.1S-14.6,22.6-14.6,21.5z"/>
	</g>
	<g class="st3">
		<g>
			<path class="st9" d="M-8.9,24.7c0-0.6-0.2-1.1-0.6-1.6c-0.4-0.4-1-0.6-1.6-0.7c-0.6,0-1.1,0.2-1.5,0.6l3.1,3.1
				C-9.1,25.9-8.9,25.3-8.9,24.7z"/>
			
				<rect x="-20.5" y="26.8" transform="matrix(0.7071 -0.7071 0.7071 0.7071 -25.0438 -2.3805)" class="st9" width="10.2" height="4.4"/>
			<polygon class="st9" points="-20.9,32.1 -21.6,35.3 -18.4,34.6 			"/>
		</g>
		<polygon class="st10" points="-18.4,34.6 -20.9,32.1 -20.5,31.1 -17.4,34.2 		"/>
		<polygon class="st10" points="-10.2,27 -13.3,23.9 -12.6,23.2 -9.5,26.3 		"/>
	</g>
	<g class="st3">
		<path class="st11" d="M6.4-5.5h45.9c2.5,0,4.6,2.1,4.6,4.6V45c0,2.5-2.1,4.6-4.6,4.6H6.4c-2.5,0-4.6-2.1-4.6-4.6V-0.9
			C1.8-3.5,3.9-5.5,6.4-5.5z"/>
		<g class="st0">
			<g class="st3">
				<path class="st12" d="M44.2,10c-2,0-8.6-0.8-15.7-1.7C22.2,7.5,15,6.7,13.3,6.7V3c2,0,8.6,0.8,15.7,1.7
					c6.3,0.8,13.5,1.6,15.2,1.6V10z"/>
			</g>
			<g class="st3">
				<path class="st12" d="M44.2,20.6c-1.9,0-7.3-2.3-15.8-6c-6-2.6-13.4-5.8-15-5.8v-2c1.9,0,7.3,2.3,15.8,6c6,2.6,13.4,5.8,15,5.8
					V20.6z"/>
			</g>
			<g class="st3">
				<path class="st13" d="M44.2,30.2c-2.2,0-6.7-2.8-16.5-9.1c-5.1-3.3-12.8-8.3-14.4-8.5V8.8c2.2,0,6.7,2.8,16.5,9.1
					c5.1,3.3,12.8,8.3,14.4,8.5V30.2z"/>
			</g>
			<g class="st3">
				<path class="st12" d="M13.3,21.1v-2.8c1.7,0,9.1-2.3,15-4.1c8.6-2.6,13.9-4.2,15.8-4.2v2.8c-1.7,0-9.1,2.3-15,4.1
					C20.6,19.6,15.3,21.1,13.3,21.1z"/>
			</g>
			<g class="st3">
				<path class="st12" d="M13.3,22.7v-1.6c1.9,0,8.8-0.1,15.4-0.3c6.7-0.1,13.6-0.3,15.5-0.3v1.7c-1.9,0-8.8,0.1-15.4,0.3
					C22.1,22.6,15.2,22.7,13.3,22.7z"/>
			</g>
			<g class="st3">
				<path class="st12" d="M44.2,32.9c-1.9,0-7.2-1.4-15.8-3.8c-6.3-1.7-13.4-3.7-15.1-3.7v-2.7c1.9,0,7.2,1.4,15.8,3.8
					c6.3,1.7,13.4,3.7,15.1,3.7V32.9z"/>
			</g>
			<g class="st3">
				<path class="st12" d="M13.3,34.8v-3.3l0,0c1.6-0.2,9.1-5.3,14.5-9c9.7-6.7,14.2-9.6,16.4-9.6v3.3c-1.6,0.2-9.1,5.3-14.5,9
					C20,31.9,15.5,34.8,13.3,34.8z"/>
			</g>
			<g class="st3">
				<path class="st12" d="M13.3,36.6v-1.7c1.7,0,8.8-3.3,15.1-6.2c8.5-4,13.9-6.4,15.8-6.4V24c-1.7,0-8.8,3.3-15.1,6.2
					C20.6,34.1,15.3,36.6,13.3,36.6z"/>
			</g>
			<g class="st3">
				<path class="st12" d="M13.3,39.4v-2.8c1.8,0,8.6-0.9,15.2-1.8c7-0.9,13.7-1.8,15.6-1.8v2.8c-1.8,0-8.6,0.9-15.2,1.8
					C21.9,38.5,15.3,39.4,13.3,39.4z"/>
			</g>
		</g>
		<g class="st0">
			<g class="st3">
				<rect x="8.6" y="3.1" class="st9" width="4.7" height="9.5"/>
			</g>
			<g class="st14">
				<rect x="44.3" y="6.4" class="st15" width="4.7" height="9.8"/>
			</g>
			<g class="st14">
				<rect x="44.3" y="18.6" class="st15" width="4.7" height="5.3"/>
			</g>
			<g class="st3">
				<rect x="44.3" y="26.3" class="st16" width="4.7" height="9.4"/>
			</g>
			<g class="st14">
				<rect x="8.6" y="18.3" class="st15" width="4.7" height="7.1"/>
			</g>
			<g class="st14">
				<rect x="8.6" y="31.5" class="st15" width="4.7" height="7.9"/>
			</g>
		</g>
	</g>
	<g class="st3">
		<path class="st11" d="M-52.2,55h45.7c2.5,0,4.6,2,4.6,4.6v45.7c0,2.5-2,4.6-4.6,4.6h-45.7c-2.5,0-4.6-2-4.6-4.6V59.6
			C-56.8,57.1-54.8,55-52.2,55z"/>
		<polygon class="st17" points="-21.1,78.1 -21.1,82.5 -21.6,82.5 -20.8,83.2 -20.1,82.5 -20.5,82.5 -20.5,78.1 		"/>
		<polygon class="st17" points="-30.1,60.9 -30.1,65.3 -30.6,65.3 -29.8,66 -29,65.3 -29.5,65.3 -29.5,60.9 		"/>
		<polygon class="st17" points="-21.1,87.1 -25.2,94 -25.6,93.8 -25.4,94.9 -24.3,94.6 -24.7,94.4 -20.6,87.4 		"/>
		<path class="st17" d="M-22,75.1l-3.5-5.6c0.5-0.1,0.8-0.4,0.8-0.8v-1.3c0-0.5-0.5-0.9-1-0.9h-8.2c-0.6,0-1,0.4-1,0.9v1.3
			c0,0.2,0.1,0.5,0.3,0.6c0.1,0,0.1,0.1,0.2,0.1l-3.7,3l-0.3-0.4l-0.1,1.1l1.1,0.1l-0.3-0.4l4.1-3.3c1.6,0,3.2,0,4.8,0
			c0.9,0,1.8,0,2.7,0l3.7,5.9l-0.4,0.2l1.1,0.2l0.2-1.1L-22,75.1z"/>
		<path class="st17" d="M-35,73.8h-7.1c-0.9,0-1.6,0.7-1.6,1.6S-43,77-42.1,77h3.2v2.9h-0.5l0.8,0.8l0.8-0.8h-0.5V77h3.3
			c0.9,0,1.6-0.7,1.6-1.6C-33.5,74.5-34.2,73.8-35,73.8z"/>
		<path class="st17" d="M-35,80.9h-7.1c-0.9,0-1.6,0.7-1.6,1.6s0.7,1.6,1.6,1.6h3.2V87h-0.5l0.8,0.8l0.8-0.8h-0.5v-2.9h3.3
			c0.9,0,1.6-0.7,1.6-1.6S-34.2,80.9-35,80.9z"/>
		<path class="st17" d="M-33.5,89.6c0-0.9-0.7-1.6-1.6-1.6h-7.1c-0.9,0-1.6,0.7-1.6,1.6s0.7,1.6,1.6,1.6h3.5l3.4,3.4l-0.3,0.3h1.1
			v-1.1l-0.3,0.3l-3-3h2.8C-34.2,91.1-33.5,90.4-33.5,89.6z"/>
		<path class="st17" d="M-26.2,95.1h-7.1c-0.9,0-1.6,0.7-1.6,1.6c0,0.9,0.7,1.6,1.6,1.6h3.3v2.4h-0.5l0.8,0.8l0.8-0.8h-0.5v-2.4h3.3
			c0.9,0,1.6-0.7,1.6-1.6C-24.7,95.8-25.4,95.1-26.2,95.1z"/>
		<path class="st18" d="M-17.3,80.4h-7.1c-0.9,0-1.6-0.7-1.6-1.6l0,0c0-0.9,0.7-1.6,1.6-1.6h7.1c0.9,0,1.6,0.7,1.6,1.6l0,0
			C-15.7,79.7-16.4,80.4-17.3,80.4z"/>
		<path class="st18" d="M-17.3,87.5h-7.1c-0.9,0-1.6-0.7-1.6-1.6l0,0c0-0.9,0.7-1.6,1.6-1.6h7.1c0.9,0,1.6,0.7,1.6,1.6l0,0
			C-15.7,86.8-16.4,87.5-17.3,87.5z"/>
		<circle class="st19" cx="-29.8" cy="103.8" r="2"/>
		<circle class="st19" cx="-29.8" cy="61.4" r="2"/>
	</g>
	<path class="st2" d="M6.3,55.1h46c2.5,0,4.6,2,4.6,4.6v45.5c0,2.5-2.1,4.6-4.6,4.6h-46c-2.5,0-4.6-2-4.6-4.6V59.7
		C1.7,57.2,3.8,55.1,6.3,55.1z"/>
	<g class="st3">
		<path class="st20" d="M24.5,84.7l-9.7,13.5h27.8c0.5,0,0.9-0.4,0.9-0.9V75.5L33.2,89.4L24.5,84.7z"/>
		<path class="st20" d="M31.9,83.7l8.6-11.5H12.7c-0.5,0-0.9,0.4-0.9,0.9v21.6l11.3-15.8L31.9,83.7z"/>
		<path class="st21" d="M43.5,75.6v1.8H37v-5.2h3.5l1.3-1.8H12.7c-1.5,0-2.7,1.2-2.7,2.7v24.3c0,1.5,1.2,2.7,2.7,2.7h6h0.9h7.8h0.9
			h7.8H37h5.7c1.5,0,2.7-1.2,2.7-2.7V93v-0.9v-6.4v-0.9v-6.4v-0.9v-4.3L43.5,75.6z M36.1,77.4h-7.8v-5.2h7.8V77.4z M27.4,78.3v6.4
			h-7.8v-6.4H27.4z M19.6,77.4v-5.2h7.8v5.2H19.6z M18.7,84.7h-6.9v-6.4h6.9V84.7z M18.7,85.6V92h-6.9v-6.4H18.7z M19.6,85.6h7.8V92
			h-7.8V85.6z M28.3,85.6h7.8V92h-7.8V85.6z M28.3,84.7v-6.4h7.8v6.4H28.3z M12.7,72.2h6v5.2h-6.9v-4.3
			C11.9,72.6,12.3,72.2,12.7,72.2z M14.8,98.2l-1,1.5l-3.6-2.6l1.7-2.4v-1.8h6.9v5.3H14.8z M19.6,98.2v-5.3h7.8v5.3H19.6z
			 M28.3,98.2v-5.3h7.8v5.3H28.3z M43.5,97.3c0,0.5-0.4,0.9-0.9,0.9h-5.7v-5.3h6.5L43.5,97.3L43.5,97.3z M43.5,92H37v-6.4h6.5V92z
			 M43.5,84.7H37v-6.4h6.5V84.7z"/>
		<path class="st22" d="M11.9,97.3v-2.6l-1.7,2.4l3.6,2.6l1-1.5h-2C12.3,98.2,11.9,97.8,11.9,97.3z"/>
		<path class="st22" d="M42.6,72.2c0.5,0,0.9,0.4,0.9,0.9v2.5l1.8-2.4v-0.1c0-1.5-1.2-2.7-2.7-2.7h-0.8l-1.3,1.8
			C40.5,72.2,42.6,72.2,42.6,72.2z"/>
		<path class="st16" d="M45.3,73.1L45.3,73.1l4.6-6.1l-3.6-2.7l-4.5,6.1h0.8C44.1,70.4,45.3,71.6,45.3,73.1z"/>
		<path class="st16" d="M42.6,72.2h-2.1l-8.6,11.5l-8.8-4.8L11.8,94.7v2.6c0,0.5,0.4,0.9,0.9,0.9h2l9.7-13.5l8.7,4.8l10.3-13.9v-2.5
			C43.5,72.6,43.1,72.2,42.6,72.2z"/>
	</g>
</g>
<g>
	<g id="Accolade_en_woordmerken">
		<g>
			<rect x="104" y="23.8" class="st11" width="3.4" height="23.2"/>
			<rect x="104" y="17" class="st11" width="3.4" height="3.4"/>
			<path class="st11" d="M142.3,17.4h1.8v-2.9h-2.5c-4,0-5.9,2.8-5.9,6.2v26.3h3.4V27.1h3.4v-3.4h-3.4v-3
				C139.1,18.7,140.1,17.4,142.3,17.4"/>
			<path class="st11" d="M158.6,28.2c-1.1-1.1-2.6-1.7-4.2-1.7c-1.6,0-3.1,0.6-4.2,1.7c-1.7,1.7-1.9,4.6-1.9,7.2
				c0,2.6,0.2,5.5,1.9,7.2c1.1,1.1,2.5,1.7,4.2,1.7s3.1-0.6,4.2-1.7c1.7-1.7,1.8-4.6,1.8-7.2C160.5,32.8,160.3,29.9,158.6,28.2
				 M161,44.6c-1.6,1.6-3.8,2.7-6.6,2.7c-2.8,0-5-1-6.6-2.7c-2.3-2.4-2.8-5.7-2.8-9.2c0-3.6,0.5-6.8,2.8-9.2
				c1.6-1.6,3.8-2.7,6.6-2.7c2.8,0,5,1,6.6,2.7c2.4,2.4,2.8,5.7,2.8,9.2C163.9,38.9,163.4,42.2,161,44.6"/>
			<path class="st11" d="M128.3,26.1c2.4,2.4,2.8,5.7,2.8,9.2l0,0v11.6h-3.4V35.3l0,0c0-2.6-0.1-5.5-1.8-7.2
				c-1.1-1.1-2.6-1.7-4.2-1.7s-3.1,0.6-4.2,1.7c-1.7,1.7-1.9,4.6-1.9,7.2l0,0v11.6h-3.4V35.3c0-3.6,0.5-6.8,2.8-9.2
				c1.6-1.6,3.8-2.7,6.6-2.7C124.5,23.5,126.7,24.5,128.3,26.1"/>
			<path class="st11" d="M243.7,42.9c-1,0.8-2.3,1.3-3.8,1.3c-1.6,0-3.1-0.6-4.2-1.7c-1.7-1.7-1.9-4.6-1.9-7.2s0.2-5.5,1.9-7.2
				c1.1-1.1,2.5-1.7,4.2-1.7c1.4,0,2.7,0.5,3.8,1.3l2.3-2.3c-1.5-1.2-3.5-2-6-2c-2.8,0-5,1-6.6,2.7c-2.4,2.4-2.8,5.7-2.8,9.2
				c0,3.5,0.5,6.8,2.8,9.2c1.6,1.6,3.8,2.7,6.6,2.7c2.5,0,4.4-0.8,6-2L243.7,42.9z"/>
			<path class="st11" d="M173.7,44c-2.2,0-3.1-1.3-3.1-3.4V27.1h3.4v-3.4h-3.4v-7.1h-3.4v24.1c0,3.4,2,6.2,5.9,6.2h2.4V44L173.7,44
				L173.7,44z"/>
			<path class="st11" d="M191.4,28.2c-1.1-1.1-2.6-1.7-4.2-1.7c-1.6,0-3.1,0.6-4.2,1.7c-1.7,1.7-1.9,4.6-1.9,7.2
				c0,2.6,0.2,5.5,1.9,7.2c1.1,1.1,2.5,1.7,4.2,1.7s3.1-0.6,4.2-1.7c1.7-1.7,1.8-4.6,1.8-7.2C193.2,32.8,193.1,29.9,191.4,28.2
				 M193.8,44.6c-1.6,1.6-3.8,2.7-6.6,2.7s-5-1-6.6-2.7c-2.4-2.4-2.8-5.7-2.8-9.2c0-3.6,0.5-6.8,2.8-9.2c1.6-1.6,3.8-2.7,6.6-2.7
				s5,1,6.6,2.7c2.4,2.4,2.8,5.7,2.8,9.2S196.1,42.2,193.8,44.6"/>
			<path class="st11" d="M214.1,42.5c-1.1,1.1-2.6,1.7-4.2,1.7c-1.6,0-3.1-0.6-4.2-1.7c-1.6-1.6-1.8-4.6-1.8-7.1
				c0-2.6,0.2-5.5,1.9-7.2c1.1-1.1,2.5-1.7,4.2-1.7c1.6,0,3.1,0.6,4.2,1.7c1.7,1.7,1.8,4.6,1.8,7.2
				C215.9,37.9,215.8,40.8,214.1,42.5 M216.5,26.1c-1.6-1.6-3.8-2.7-6.6-2.7c-2.8,0-5,1-6.6,2.7c-2.4,2.4-2.8,5.7-2.8,9.2v19.8h3.4
				v-10c1.6,1.3,3.5,2.1,6.1,2.1c2.8,0,5-1,6.6-2.7c2.4-2.4,2.8-5.7,2.8-9.2C219.3,31.8,218.9,28.5,216.5,26.1"/>
			<path class="st11" d="M260.1,34.4l-3.7-0.8c-2.9-0.5-3.9-1.8-3.6-3.8c0.3-2.3,2.2-3.6,5.6-3.2c2,0.2,3.8,0.9,5.3,2v-3.5
				c-1.4-0.7-3.1-1.1-4.9-1.3c-4.9-0.5-8.7,1.6-9.2,5.8c-0.4,3.8,1.7,6.1,6.1,7l3.8,0.8c2.7,0.5,3.7,1.8,3.5,3.8
				c-0.3,2.7-2.8,3.8-6.6,3.3c-2.7-0.3-5-1.2-6.5-3.1v4.1c1.8,1.1,3.8,1.6,6.3,2c5.6,0.6,9.6-1.5,10.2-5.9
				C266.7,37,264.1,35.2,260.1,34.4"/>
			<rect x="223.1" y="23.8" class="st11" width="3.4" height="23.2"/>
			<rect x="223.1" y="17" class="st11" width="3.4" height="3.4"/>
		</g>
		<path class="st16" d="M93,55.1c-1.2,1.2-1.8,3.3-1.8,6.3v23.7c0,5.7-0.7,8-2.7,10c-2,2.1-4.8,2.8-9.8,2.8v-4.7h-0.1
			c3.6,0,4.8-0.2,5.9-1.4S86,88.9,86,85V61.2c0-5.5,1.8-8.3,6.1-10.4c-4.4-2.2-6.1-5-6.1-10.4V16.6c0-3.9-0.3-5.7-1.4-6.8
			S83.7,8.4,80,8.4h-1.3V3.7h1.4c5,0,6.3,0.8,8.4,2.8c1.9,2,2.7,4.2,2.7,10v23.7c0,2.9,0.6,5,1.8,6.3c1.1,1.2,2.5,2,4.4,2h1.8v4.6
			h-1.8C95.5,53.1,94.2,53.9,93,55.1"/>
		<g>
			<path class="st16" d="M125.3,66.6v7.2h-1.8v-0.9l0,0c-0.4,0.6-1.5,1.1-2.9,1.1c-2.4,0-3.8-1.3-3.8-3.1c0-1.6,1.1-3.1,3.3-3.1h3.3
				v-1.2c0-1.2-0.8-1.7-2.4-1.7c-1.3,0-2,0.3-2.5,0.9l-1.1-1.2c0.8-0.9,2.1-1.4,3.5-1.4C123.4,63.1,125.3,63.9,125.3,66.6z
				 M120.8,72.3c1.4,0,2.7-0.4,2.7-2v-1.2h-2.9c-1.4,0-2.1,0.5-2.1,1.6C118.6,71.7,119.3,72.3,120.8,72.3z"/>
			<path class="st16" d="M129.3,63.3v1.2h0.1c0.8-1,1.8-1.3,2.9-1.3c3,0,3.8,2.7,3.8,5.3c0,2.7-0.8,5.5-4.1,5.5
				c-1,0-1.9-0.3-2.5-1.1h-0.1v5.1h-1.7V63.2L129.3,63.3L129.3,63.3z M131.7,72.2c2.2,0,2.5-1.9,2.5-3.6c0-1.6-0.1-3.7-2.4-3.7
				c-2.1,0-2.5,2.1-2.5,3.7C129.3,70.1,129.6,72.2,131.7,72.2z"/>
			<path class="st16" d="M139.9,63.3v1.2h0.1c0.8-1,1.8-1.3,2.9-1.3c3,0,3.8,2.7,3.8,5.3c0,2.7-0.8,5.5-4.1,5.5
				c-1,0-1.9-0.3-2.5-1.1h-0.1v5.1h-1.7V63.2L139.9,63.3L139.9,63.3z M142.2,72.2c2.2,0,2.5-1.9,2.5-3.6c0-1.6-0.1-3.7-2.4-3.7
				c-2.1,0-2.5,2.1-2.5,3.7C139.9,70.1,140.1,72.2,142.2,72.2z"/>
			<path class="st16" d="M152.3,73.9c-1.5,0-3.1-0.5-4.4-1.5L149,71c1,0.8,2,1.3,3.4,1.3c1.3,0,2.3-0.5,2.3-1.6s-1-1.4-2.4-1.5
				c-1.6-0.1-3.8-0.5-3.8-2.9c0-2,1.8-3.2,3.8-3.2c1.6,0,2.8,0.4,3.8,1.2l-1,1.4c-0.8-0.5-1.7-1-2.8-1c-1.4,0-2.1,0.6-2.1,1.6
				c0,1,1,1.2,2.9,1.4c1.5,0.1,3.3,0.8,3.3,2.9C156.4,72.6,154.7,73.9,152.3,73.9z"/>
			<path class="st16" d="M163.7,63.3V61c0-1.8,1.2-2.7,2.7-2.7h1.2v1.6h-1.1c-0.9,0-1.1,0.6-1.1,1.4v2h1.4v1.5h-1.4v9h-1.8v-9V63.3
				L163.7,63.3z"/>
			<path class="st16" d="M176.8,64.9c0.5,0.8,0.8,1.8,0.8,3.2c0,1.8-0.1,3-0.7,3.8c-0.8,1.2-2.1,1.9-3.8,1.9c-1.5,0-2.7-0.5-3.5-1.6
				c-0.5-0.9-0.8-2-0.8-3.8c0-1.2,0.1-2.2,0.5-3c0.7-1.5,2.1-2.4,4-2.4C174.9,63.2,176.1,63.8,176.8,64.9z M171,66.2
				c-0.3,0.6-0.3,1.4-0.4,2.3c0,1,0.1,1.6,0.3,2.3c0.4,0.9,1.2,1.4,2.3,1.4c1.1,0,2-0.5,2.5-1.8c0.1-0.5,0.1-1.1,0.1-2.3
				c0-0.8-0.1-1.4-0.3-2c-0.4-1-1.2-1.5-2.3-1.5C172.3,64.7,171.4,65.3,171,66.2z"/>
			<path class="st16" d="M185.7,65.3c-0.4-0.3-1-0.4-1.5-0.4c-1.4,0-2.4,0.9-2.4,2.5v6.3h-1.7V63.2h1.7v1.4h0.1
				c0.8-1.1,1.6-1.4,2.7-1.4c0.8,0,1.4,0.1,1.8,0.5L185.7,65.3z"/>
			<path class="st16" d="M193.1,63.3v-2.6h1.7v2.6h1.6v1.5h-1.6v6.1c0,0.7,0.1,1.3,1,1.3h0.9v1.6h-1.2c-1.4,0-2.5-0.9-2.5-2.5v-6.5
				L193.1,63.3L193.1,63.3z"/>
			<path class="st16" d="M206.8,66.6v7.2H205v-0.9l0,0c-0.4,0.6-1.5,1.1-2.9,1.1c-2.4,0-3.8-1.3-3.8-3.1c0-1.6,1.1-3.1,3.3-3.1h3.3
				v-1.2c0-1.2-0.8-1.7-2.4-1.7c-1.3,0-2,0.3-2.5,0.9l-1.1-1.2c0.8-0.9,2.1-1.4,3.5-1.4C204.8,63.1,206.8,63.9,206.8,66.6z
				 M202.3,72.3c1.4,0,2.7-0.4,2.7-2v-1.2h-2.9c-1.4,0-2.1,0.5-2.1,1.6C200,71.7,200.8,72.3,202.3,72.3z"/>
			<path class="st16" d="M213.7,73.9c-1,0-2.2-0.3-2.9-1.3h-0.1v1.2h-1.7V58.4h1.7v6.1h0.1c0.9-1,1.8-1.3,2.9-1.3
				c3,0,3.7,2.6,3.8,5.2C217.5,71.1,216.9,73.9,213.7,73.9z M213.3,64.9c-2.1,0-2.4,2-2.4,3.6c0,1.6,0.3,3.8,2.4,3.8
				c2.2,0,2.5-2.2,2.5-3.8C215.6,66.8,215.4,64.9,213.3,64.9z"/>
			<path class="st16" d="M222.3,73.8c-1.5,0-2.6-0.6-2.6-2.5v-13h1.7v12.8c0,0.6,0.3,1,1.1,1h0.5v1.6L222.3,73.8L222.3,73.8z"/>
			<path class="st16" d="M226.2,69.1v0.1c0,1.6,0.9,3,2.7,3c0.7,0,1.6-0.3,2.4-1l1.1,1.2c-1,1-2.3,1.4-3.5,1.4c-2.1,0-4.4-1-4.4-5.3
				c0-4.2,2.4-5.4,4.4-5.4c2.3,0,4.2,1.7,4.2,4.6v1.4H226.2z M226.2,67.7h4.9c-0.1-1.9-1-2.9-2.5-2.9
				C227.2,64.8,226.2,65.8,226.2,67.7z"/>
			<path class="st16" d="M242.8,66.6v7.2H241v-0.9l0,0c-0.4,0.6-1.5,1.1-2.9,1.1c-2.4,0-3.8-1.3-3.8-3.1c0-1.6,1.1-3.1,3.3-3.1h3.3
				v-1.2c0-1.2-0.8-1.7-2.4-1.7c-1.3,0-2,0.3-2.5,0.9l-1.1-1.2c0.8-0.9,2.1-1.4,3.5-1.4C240.8,63.1,242.8,63.9,242.8,66.6z
				 M238.3,72.3c1.4,0,2.7-0.4,2.7-2v-1.2h-2.9c-1.4,0-2.1,0.5-2.1,1.6S236.8,72.3,238.3,72.3z"/>
			<path class="st16" d="M251.6,73.8v-1.2h-0.1c-0.7,0.9-1.8,1.3-2.9,1.3c-2.2,0-3.6-1.1-3.6-3.7v-7h1.7v6.3c0,1.8,0.5,2.7,2.4,2.7
				c1.4,0,2.5-1.1,2.5-2.7v-6.3h1.7v10.5C253.3,73.8,251.6,73.8,251.6,73.8z"/>
		</g>
	</g>
	<g id="SMM">
		<g>
			<g class="st23">
				<path class="st24" d="M53,18.6c2.8,0,6.9,2.5,9.6,2.5"/>
			</g>
			<path class="st25" d="M53,20.7c2.8,0,6.9,8.7,9.6,8.7"/>
			<path class="st26" d="M53,22.8c2.8,0,6.9,13,9.6,13"/>
			<path class="st27" d="M53,29.5c2.8,0,6.9-6.1,9.6-6.1"/>
			<path class="st28" d="M53,32.7c2.8,0,6.9,5.5,9.6,5.5"/>
			<path class="st29" d="M53,39.5c2.8,0,6.9-13.8,9.6-13.8"/>
			<path class="st30" d="M53,41.3c2.7,0,6.8-9.3,9.6-9.3"/>
			<g class="st23">
				<path class="st31" d="M53,43c2.8,0,6.9-2.7,9.6-2.7"/>
			</g>
			<path class="st32" d="M66,21.7c2.8,0,6.3-2,9.1-2"/>
			<path class="st33" d="M66,30c2.8,0,6.3-7,9.1-7"/>
			<path class="st34" d="M66,36.5c2.8,0,6.3-10.2,9.1-10.2"/>
			<path class="st35" d="M66,24.5c2.8,0,6.3,7.4,9.1,7.4"/>
			<path class="st36" d="M66,39.1c2.8,0,6.3-4.9,9.1-4.9"/>
			<path class="st37" d="M66,25.5c2.8,0,6.3,12.1,9.1,12.1"/>
			<path class="st38" d="M66,26.3c2.8,0,6.3,15.3,9.1,15.3"/>
			<path class="st39" d="M66,40.7c2.8,0,6.3,2.7,9.1,2.7"/>
		</g>
		<path class="st40" d="M75.1,38"/>
		<path class="st40" d="M66,32.1"/>
		<path class="st41" d="M75.1,42.5"/>
		<path class="st41" d="M66,32.5"/>
		<g>
			<g class="st23">
				<path class="st42" d="M53,18.6c2.8,0,6.9,2.5,9.6,2.5"/>
			</g>
			<path class="st43" d="M53,20.7c2.8,0,6.9,8.7,9.6,8.7"/>
			<path class="st44" d="M53,22.8c2.8,0,6.9,13,9.6,13"/>
			<path class="st45" d="M53,29.5c2.8,0,6.9-6.1,9.6-6.1"/>
			<path class="st46" d="M53,32.7c2.8,0,6.9,5.5,9.6,5.5"/>
			<path class="st47" d="M53,39.5c2.8,0,6.9-13.8,9.6-13.8"/>
			<path class="st48" d="M53,41.3c2.7,0,6.8-9.3,9.6-9.3"/>
			<g class="st23">
				<path class="st49" d="M53,43c2.8,0,6.9-2.7,9.6-2.7"/>
			</g>
			<path class="st50" d="M66,21.7c2.8,0,6.3-2,9.1-2"/>
			<path class="st51" d="M66,30c2.8,0,6.3-7,9.1-7"/>
			<path class="st52" d="M66,36.5c2.8,0,6.3-10.2,9.1-10.2"/>
			<path class="st53" d="M66,24.5c2.8,0,6.3,7.4,9.1,7.4"/>
			<path class="st54" d="M66,39.1c2.8,0,6.3-4.9,9.1-4.9"/>
			<path class="st55" d="M66,25.5c2.8,0,6.3,12.1,9.1,12.1"/>
			<path class="st56" d="M66,26.3c2.8,0,6.3,15.3,9.1,15.3"/>
			<path class="st57" d="M66,40.7c2.8,0,6.3,2.7,9.1,2.7"/>
		</g>
		<g>
			<g>
				<rect x="49.5" y="17.2" class="st16" width="3.4" height="7"/>
			</g>
			<g>
				<rect x="62.6" y="19.7" class="st58" width="3.4" height="7.2"/>
			</g>
			<g>
				<rect x="62.6" y="28.7" class="st58" width="3.4" height="3.9"/>
			</g>
			<g>
				<rect x="62.6" y="34.4" class="st58" width="3.4" height="7"/>
			</g>
			<g>
				<rect x="49.5" y="28.5" class="st16" width="3.4" height="5.3"/>
			</g>
			<g>
				<rect x="49.5" y="38.3" class="st16" width="3.4" height="5.8"/>
			</g>
			<g>
				<rect x="75.1" y="17.7" class="st16" width="3.4" height="10.6"/>
			</g>
			<g>
				<rect x="75.1" y="31.2" class="st16" width="3.4" height="3.5"/>
			</g>
			<g>
				<rect x="75.1" y="37.4" class="st16" width="3.4" height="1"/>
			</g>
			<g>
				<rect x="75.1" y="41" class="st16" width="3.4" height="3"/>
			</g>
		</g>
	</g>
	<g id="WBE">
		<path class="st59" d="M20,31.1c-0.3-0.3-0.5-0.2-0.5,0.2v1.4c-3.1,0-5.7-2.5-5.7-5.7c0-1.6,0.6-3,1.6-4l-1.9-1.9
			c-1.5,1.5-2.4,3.6-2.4,5.9c0,4.6,3.7,8.4,8.3,8.4v1.4c0,0.5,0.3,0.5,0.5,0.2l1.2-1.2l1.2-1.2c0.3-0.3,0.3-0.8,0-1.1l-1.2-1.3
			L20,31.1z"/>
		<path class="st58" d="M27.5,27.1c0-4.6-3.8-8.4-8.4-8.4v-1.4c0-0.5-0.2-0.5-0.5-0.3l-1.2,1.2l-1.2,1.3c-0.3,0.3-0.3,0.8,0,1.1
			l1.2,1.2l1.2,1.2c0.3,0.3,0.5,0.1,0.5-0.2v-1.4c3.1,0,5.7,2.5,5.7,5.7c0,0.6-0.1,1.2-0.3,1.7c0.8-0.2,1.7-0.4,2.9-0.5
			C27.5,28,27.5,27.6,27.5,27.1z"/>
		<g>
			<path class="st60" d="M34.9,34.3L34.9,34.3c-0.1,0.1-0.1,0.1-0.2,0.1l0,0c-0.1,0.1-0.1,0.1-0.2,0.1h-0.1
				c-0.1,0.1-0.1,0.1-0.2,0.1h-0.1c-0.1,0-0.1,0.1-0.2,0.1h-0.1c-0.1,0-0.2,0.1-0.3,0.1h-0.1c-0.1,0-0.1,0.1-0.3,0.1h-0.1
				c-0.1,0-0.2,0.1-0.3,0.1h-0.1c-0.1,0-0.2,0.1-0.3,0.1h-0.1c-0.1,0-0.2,0.1-0.3,0.1H32c-0.1,0-0.2,0-0.3,0.1h-0.1
				c-0.1,0-0.3,0-0.3,0.1h-0.1c-0.1,0-0.2,0-0.3,0.1h-0.1c-0.1,0-0.3,0-0.4,0h-0.1c-0.1,0-0.3,0-0.3,0l0,0c-0.1,0-0.3,0-0.4,0h-0.1
				c-0.1,0-0.3,0-0.4,0c-0.1,0-0.3,0-0.4,0h-0.1c-0.1,0-0.3,0-0.4,0l0,0c-0.1,0-0.3,0-0.3,0h-0.1c-0.1,0-0.3,0-0.4,0h-0.1
				c-0.1,0-0.2,0-0.3-0.1h-0.1c-0.1,0-0.3,0-0.3-0.1h-0.1c-0.1,0-0.2,0-0.3-0.1h-0.1c-0.1,0-0.2-0.1-0.3-0.1h-0.1
				c-0.1,0-0.2-0.1-0.3-0.1h-0.1c-0.1,0-0.2-0.1-0.3-0.1h-0.1c-0.1,0-0.2-0.1-0.3-0.1h-0.1c-0.1,0-0.2-0.1-0.3-0.1h-0.1
				c-0.1,0-0.1-0.1-0.2-0.1H24c-0.1-0.1-0.1-0.1-0.2-0.1h-0.1c-0.1,0-0.1-0.1-0.2-0.1l0,0c-0.1-0.1-0.1-0.1-0.2-0.1l0,0V37
				c0,0.6,2.3,1.5,5.9,1.5S35,37.6,35,37L34.9,34.3z"/>
			<path class="st60" d="M34.9,37.8C34.9,37.9,34.9,37.9,34.9,37.8c-0.1,0.1-0.1,0.1-0.2,0.1l0,0c-0.1,0.1-0.1,0.1-0.2,0.1h-0.1
				c-0.1,0.1-0.1,0.1-0.2,0.1h-0.1c-0.1,0-0.1,0.1-0.2,0.1h-0.1c-0.1,0-0.2,0.1-0.3,0.1h-0.1c-0.1,0-0.1,0.1-0.3,0.1h-0.1
				c-0.1,0-0.2,0.1-0.3,0.1h-0.1c-0.1,0-0.2,0.1-0.3,0.1h-0.1c-0.1,0-0.2,0.1-0.3,0.1H32c-0.1,0-0.2,0-0.3,0.1h-0.1
				c-0.1,0-0.3,0-0.3,0.1h-0.1c-0.1,0-0.2,0-0.3,0.1h-0.1c-0.1,0-0.3,0-0.4,0h-0.1c-0.1,0-0.3,0-0.3,0l0,0c-0.1,0-0.3,0-0.4,0h-0.1
				c-0.1,0-0.3,0-0.4,0c-0.1,0-0.3,0-0.4,0h-0.1c-0.1,0-0.3,0-0.4,0l0,0c-0.1,0-0.3,0-0.3,0h-0.1c-0.1,0-0.3,0-0.4,0h-0.1
				c-0.1,0-0.2,0-0.3-0.1h-0.1c-0.1,0-0.3,0-0.3-0.1h-0.1c-0.1,0-0.2,0-0.3-0.1h-0.1c-0.1,0-0.2-0.1-0.3-0.1h-0.1
				c-0.1,0-0.2-0.1-0.3-0.1h-0.1c-0.1,0-0.2-0.1-0.3-0.1h-0.1c-0.1,0-0.2-0.1-0.3-0.1h-0.1c-0.1,0-0.2-0.1-0.3-0.1h-0.1
				c-0.1,0-0.1-0.1-0.2-0.1H24c-0.1-0.1-0.1-0.1-0.2-0.1h-0.1c-0.1,0-0.1-0.1-0.2-0.1l0,0c-0.1-0.1-0.1-0.1-0.2-0.1l0,0v2.7
				c0,0.6,2.3,1.5,5.9,1.5s5.9-0.9,5.9-1.5L34.9,37.8z"/>
			<path class="st60" d="M34.9,30.7L34.9,30.7c-0.1,0.1-0.1,0.1-0.2,0.1l0,0C34.6,31,34.6,31,34.5,31h-0.1c-0.1,0.1-0.1,0.1-0.2,0.1
				h-0.1c-0.1,0-0.1,0.1-0.2,0.1h-0.1c-0.1,0-0.2,0.1-0.3,0.1h-0.1c-0.1,0-0.1,0.1-0.3,0.1h-0.1c-0.1,0-0.2,0.1-0.3,0.1h-0.1
				c-0.1,0-0.2,0.1-0.3,0.1h-0.1c-0.1,0-0.2,0.1-0.3,0.1H32c-0.1,0-0.2,0-0.3,0.1h-0.1c-0.1,0-0.3,0-0.3,0.1h-0.1
				c-0.1,0-0.2,0-0.3,0.1h-0.1c-0.1,0-0.3,0-0.4,0h-0.1c-0.1,0-0.3,0-0.3,0l0,0c-0.1,0-0.3,0-0.4,0h-0.1c-0.1,0-0.3,0-0.4,0
				c-0.1,0-0.3,0-0.4,0h-0.1c-0.1,0-0.3,0-0.4,0l0,0c-0.1,0-0.3,0-0.3,0h-0.1c-0.1,0-0.3,0-0.4,0h-0.1c-0.1,0-0.2,0-0.3-0.1h-0.1
				c-0.1,0-0.3,0-0.3-0.1h-0.1c-0.1,0-0.2,0-0.3-0.1h-0.1c-0.1,0-0.2-0.1-0.3-0.1h-0.1c-0.1,0-0.2-0.1-0.3-0.1h-0.1
				c-0.1,0-0.2-0.1-0.3-0.1h-0.1c-0.1,0-0.2-0.1-0.3-0.1h-0.1c-0.1,0-0.2-0.1-0.3-0.1h-0.1c-0.1,0-0.1-0.1-0.2-0.1H24
				C23.9,31,23.8,31,23.8,31h-0.1c-0.1,0-0.1-0.1-0.2-0.1l0,0c-0.1-0.1-0.1-0.1-0.2-0.1l0,0v2.7c0,0.6,2.3,1.5,5.9,1.5
				s5.9-0.9,5.9-1.5L34.9,30.7z"/>
			<path class="st61" d="M29,28.4c-0.5,0-1.1,0-1.6,0.1c-1.1,0.1-2.1,0.3-2.9,0.5c-0.9,0.3-1.5,0.6-1.5,1c0,0.3,0.2,0.5,0.6,0.7
				c0.6,0.3,1.6,0.5,2.7,0.7c0.8,0.1,1.6,0.1,2.5,0.1c3.3,0,5.9-0.7,5.9-1.5C34.8,29.1,32.2,28.4,29,28.4z"/>
		</g>
		<g>
			<g>
				<path class="st16" d="M39.1,32.3c0-0.4-0.1-0.9-0.5-1.2c-0.3-0.3-0.8-0.5-1.2-0.5s-0.8,0.1-1.2,0.5l2.3,2.3
					C39,33.1,39.1,32.7,39.1,32.3z"/>
				
					<rect x="30.5" y="33.9" transform="matrix(0.7071 -0.7071 0.7071 0.7071 -15.0659 34.6707)" class="st16" width="7.6" height="3.3"/>
				<polygon class="st16" points="30.2,37.8 29.6,40.2 32,39.7 				"/>
			</g>
			<polygon class="st62" points="32,39.7 30.2,37.8 30.5,37 32.8,39.3 			"/>
			<polygon class="st63" points="38.2,34 35.8,31.7 36.4,31.2 38.6,33.5 			"/>
		</g>
	</g>
	<g id="PRM">
		<g>
			<g>
				<line class="st20" x1="27.7" y1="62.9" x2="24.5" y2="65.5"/>
				<g>
					<g>
						<polygon class="st15" points="27.5,62.7 24.7,65.1 24.5,64.8 24.5,65.5 25.1,65.5 24.9,65.3 27.7,63 						"/>
					</g>
				</g>
			</g>
			<g>
				<line class="st20" x1="24.5" y1="66.9" x2="24.4" y2="70.2"/>
				<g>
					<g>
						<polygon class="st15" points="24.3,66.9 24.3,69.7 23.9,69.7 24.4,70.2 24.9,69.7 24.6,69.7 24.6,66.9 						"/>
					</g>
				</g>
			</g>
			<g>
				<g>
					<g>
						<polygon class="st58" points="35.4,69.2 35.4,71.9 35.2,71.9 35.6,72.5 36.1,71.9 35.8,71.9 35.8,69.2 						"/>
					</g>
				</g>
			</g>
			<g>
				<line class="st20" x1="24.3" y1="76.4" x2="27" y2="79.2"/>
				<g>
					<g>
						<polygon class="st15" points="24.2,76.6 26.5,79 26.3,79.2 27,79.2 27,78.5 26.8,78.7 24.5,76.3 						"/>
					</g>
				</g>
			</g>
			<g>
				<g>
					<g>
						<polygon class="st58" points="32.2,62.8 35.2,67.6 35,67.7 35.6,67.9 35.8,67.2 35.5,67.4 32.5,62.6 						"/>
					</g>
				</g>
			</g>
			<g>
				<line class="st20" x1="24.5" y1="71.5" x2="24.4" y2="74.6"/>
				<g>
					<g>
						<polygon class="st15" points="24.3,71.5 24.3,74.1 23.9,74.1 24.4,74.6 24.9,74.1 24.6,74.1 24.6,71.5 						"/>
					</g>
				</g>
			</g>
			<g>
				<g>
					<g>
						<polygon class="st58" points="35.4,74.3 32.8,78.6 32.6,78.5 32.7,79.2 33.4,79 33.2,78.8 35.8,74.5 						"/>
					</g>
				</g>
			</g>
			<g>
				<line class="st20" x1="30" y1="80.3" x2="30" y2="83.3"/>
				<g>
					<g>
						<polygon class="st15" points="29.8,80.3 29.8,82.9 29.5,82.9 30,83.3 30.5,82.9 30.2,82.9 30.1,80.3 						"/>
					</g>
				</g>
			</g>
			<g>
				<line class="st20" x1="30" y1="57.8" x2="30" y2="61"/>
				<g>
					<g>
						<polygon class="st15" points="29.8,57.8 29.8,60.5 29.5,60.5 30,61 30.5,60.5 30.2,60.5 30.1,57.8 						"/>
					</g>
				</g>
			</g>
			<path class="st15" d="M18.4,75.1h-6.6c-0.3,0-0.7-0.3-0.7-0.7l0,0c0-0.3,0.3-0.7,0.7-0.7h6.6c0.3,0,0.7,0.3,0.7,0.7l0,0
				C19.1,74.7,18.8,75.1,18.4,75.1z"/>
			<path class="st15" d="M18.4,78.8h-6.6c-0.3,0-0.7-0.3-0.7-0.7l0,0c0-0.3,0.3-0.7,0.7-0.7h6.6c0.3,0,0.7,0.3,0.7,0.7l0,0
				C19.1,78.6,18.8,78.8,18.4,78.8z"/>
			<path class="st15" d="M18.4,80.7h-6.6c-0.3,0-0.7-0.3-0.7-0.7l0,0c0-0.3,0.3-0.7,0.7-0.7h6.6c0.3,0,0.7,0.3,0.7,0.7l0,0
				C19.1,80.5,18.8,80.7,18.4,80.7z"/>
			<path class="st15" d="M18.4,82.7h-6.6c-0.3,0-0.7-0.3-0.7-0.7l0,0c0-0.3,0.3-0.7,0.7-0.7h6.6c0.3,0,0.7,0.3,0.7,0.7l0,0
				C19.1,82.4,18.8,82.7,18.4,82.7z"/>
			<path class="st15" d="M18.4,84.6h-6.6c-0.3,0-0.7-0.3-0.7-0.7l0,0c0-0.3,0.3-0.7,0.7-0.7h6.6c0.3,0,0.7,0.3,0.7,0.7l0,0
				C19.1,84.2,18.8,84.6,18.4,84.6z"/>
			<path class="st15" d="M18.4,76.9h-6.6c-0.3,0-0.7-0.3-0.7-0.7l0,0c0-0.3,0.3-0.7,0.7-0.7h6.6c0.3,0,0.7,0.3,0.7,0.7l0,0
				C19.1,76.7,18.8,76.9,18.4,76.9z"/>
			<path class="st15" d="M18.4,60.8h-6.6c-0.3,0-0.7-0.3-0.7-0.7l0,0c0-0.3,0.3-0.7,0.7-0.7h6.6c0.3,0,0.7,0.3,0.7,0.7l0,0
				C19.1,60.5,18.8,60.8,18.4,60.8z"/>
			<path class="st15" d="M18.4,64.6h-6.6c-0.3,0-0.7-0.3-0.7-0.7l0,0c0-0.3,0.3-0.7,0.7-0.7h6.6c0.3,0,0.7,0.3,0.7,0.7l0,0
				C19.1,64.3,18.8,64.6,18.4,64.6z"/>
			<path class="st15" d="M18.4,62.7h-6.6c-0.3,0-0.7-0.3-0.7-0.7l0,0c0-0.3,0.3-0.7,0.7-0.7h6.6c0.3,0,0.7,0.3,0.7,0.7l0,0
				C19.1,62.4,18.8,62.7,18.4,62.7z"/>
			<path class="st16" d="M32.5,63.2c-0.7,0-1.4,0-2,0c-1,0-2.1,0-3.1,0c-0.1,0-0.3,0-0.5-0.1c-0.1-0.1-0.2-0.3-0.2-0.4v-0.8
				c0-0.3,0.3-0.5,0.7-0.5h5.1c0.3,0,0.7,0.3,0.7,0.5v0.8C33.2,63,32.9,63.2,32.5,63.2z"/>
			<path class="st16" d="M26.6,67.9h-4.5c-0.5,0-1-0.4-1-1l0,0c0-0.5,0.4-1,1-1h4.5c0.5,0,1,0.4,1,1l0,0
				C27.7,67.4,27.2,67.9,26.6,67.9z"/>
			<path class="st16" d="M26.6,72.4h-4.5c-0.5,0-1-0.4-1-1l0,0c0-0.5,0.4-1,1-1h4.5c0.5,0,1,0.4,1,1l0,0
				C27.7,71.9,27.2,72.4,26.6,72.4z"/>
			<path class="st16" d="M26.6,76.8h-4.5c-0.5,0-1-0.4-1-1l0,0c0-0.5,0.4-1,1-1h4.5c0.5,0,1,0.4,1,1l0,0
				C27.7,76.4,27.2,76.8,26.6,76.8z"/>
			<path class="st16" d="M32.2,81.3h-4.5c-0.5,0-1-0.4-1-1l0,0c0-0.5,0.4-1,1-1h4.5c0.5,0,1,0.4,1,1l0,0
				C33.2,80.9,32.8,81.3,32.2,81.3z"/>
			<path class="st58" d="M37.9,70h-4.5c-0.5,0-1-0.4-1-1l0,0c0-0.5,0.4-1,1-1h4.5c0.5,0,1,0.4,1,1l0,0C38.8,69.6,38.4,70,37.9,70z"
				/>
			<path class="st58" d="M37.9,74.5h-4.5c-0.5,0-1-0.4-1-1l0,0c0-0.5,0.4-1,1-1h4.5c0.5,0,1,0.4,1,1l0,0
				C38.8,74.1,38.4,74.5,37.9,74.5z"/>
			<circle class="st16" cx="30" cy="57.8" r="1.2"/>
			<circle class="st16" cx="30" cy="84.8" r="1.2"/>
		</g>
	</g>
	<g id="STA">
		<g>
			<line class="st64" x1="56" y1="61.9" x2="56" y2="85.2"/>
			<line class="st64" x1="62.9" y1="61.9" x2="62.9" y2="85.2"/>
			<line class="st64" x1="48.9" y1="73.3" x2="76.9" y2="73.3"/>
			<line class="st64" x1="69.9" y1="61.9" x2="69.9" y2="85.2"/>
			<line class="st64" x1="48.9" y1="79.2" x2="76.9" y2="79.2"/>
			<line class="st64" x1="48.9" y1="67.4" x2="76.9" y2="67.4"/>
			<path class="st65" d="M50.1,84l9.5-13.3l7,3.9l12.5-16.8"/>
			<path class="st66" d="M50.8,62.2h24c0.8,0,1.4,0.6,1.4,1.4v19.5c0,0.8-0.6,1.4-1.4,1.4h-24c-0.8,0-1.4-0.6-1.4-1.4V63.6
				C49.4,62.8,50,62.2,50.8,62.2z"/>
		</g>
	</g>
</g>
</svg>
